<svg id="Capa_1" enable-background="new 0 0 510.272 510.272" height="512" viewBox="0 0 510.272 510.272" width="512" xmlns="http://www.w3.org/2000/svg"><g><g><g id="XMLID_210_"><g><path d="m468.759 116.863h-422.212l-39.051 25.782v294.3c0 16.95 13.74 30.68 30.69 30.68h433.9c16.95 0 30.69-13.73 30.69-30.68v-294.3z" fill="#f9f7f8"/><path d="m65.917 436.945v-320.082h-19.37l-39.051 25.782v294.3c0 16.95 13.74 30.68 30.69 30.68h58.421c-16.951 0-30.69-13.73-30.69-30.68z" fill="#efedef"/><path d="m502.776 101.495v41.15h-495.28v-41.15c0-16.95 13.74-30.69 30.69-30.69h433.9c16.95 0 30.69 13.74 30.69 30.69z" fill="#fd8087"/></g></g><path d="m472.086 70.805h-433.9c-16.95 0-30.69 13.74-30.69 30.69v41.15h58.421v-10.38c0-5.532 3.08-10.522 7.885-13.262 3.838-2.189 7.225-5.082 9.979-8.507 3.03-3.767 8.722-3.745 11.743.03 5.62 7.021 13.866 11.827 23.363 12.857 1.271.138 2.561.208 3.833.208 10.978 0 20.787-5.083 27.206-13.018 3.066-3.789 8.76-3.853 11.806-.047 5.62 7.022 13.866 11.827 23.363 12.857 1.271.138 2.561.208 3.833.208 10.978 0 20.787-5.083 27.206-13.018 3.066-3.789 8.76-3.853 11.806-.047 5.62 7.022 13.866 11.827 23.363 12.857 1.271.138 2.561.208 3.833.208 10.969 0 20.771-5.074 27.19-12.998 3.077-3.797 8.751-3.797 11.828 0 6.419 7.923 16.22 12.997 27.189 12.998h.002c1.271 0 2.562-.07 3.832-.208 9.497-1.03 17.744-5.836 23.364-12.858 3.046-3.805 8.74-3.742 11.805.048 6.419 7.934 16.227 13.017 27.204 13.018h.003c1.271 0 2.562-.07 3.832-.208 9.497-1.03 17.743-5.835 23.363-12.857 3.046-3.805 8.74-3.742 11.806.047 6.419 7.934 16.227 13.016 27.205 13.017h.003c1.271 0 2.562-.07 3.832-.208 17.768-1.927 31.166-17.066 31.166-35.216v-12.431c-4.803-3.114-10.525-4.93-16.674-4.93z" fill="#fe646f"/><path d="m253.459 103.499c-7.672-.832-13.323-7.616-13.323-15.333v-30.098c0-7.717 5.651-14.501 13.323-15.333 9.035-.98 16.677 6.072 16.677 14.909v30.946c0 8.837-7.642 15.889-16.677 14.909z" fill="#f9f7f8"/><path d="m187.251 103.499c-7.672-.832-13.323-7.616-13.323-15.333v-30.098c0-7.717 5.651-14.501 13.323-15.333 9.035-.98 16.677 6.072 16.677 14.909v30.946c0 8.837-7.642 15.889-16.677 14.909z" fill="#f9f7f8"/><path d="m121.043 103.499c-7.672-.832-13.323-7.616-13.323-15.333v-30.098c0-7.717 5.651-14.501 13.323-15.333 9.035-.98 16.677 6.072 16.677 14.909v30.946c0 8.837-7.641 15.889-16.677 14.909z" fill="#f9f7f8"/><path d="m54.835 103.499c-7.672-.832-13.323-7.616-13.323-15.333v-30.098c0-7.717 5.651-14.501 13.323-15.333 9.035-.98 16.677 6.072 16.677 14.909v30.946c0 8.837-7.641 15.889-16.677 14.909z" fill="#f9f7f8"/><path d="m323.02 103.499c7.672-.832 13.323-7.616 13.323-15.333v-30.098c0-7.717-5.651-14.501-13.323-15.333-9.035-.98-16.677 6.072-16.677 14.909v30.946c.001 8.837 7.642 15.889 16.677 14.909z" fill="#f9f7f8"/><path d="m389.228 103.499c7.672-.832 13.323-7.616 13.323-15.333v-30.098c0-7.717-5.651-14.501-13.323-15.333-9.035-.98-16.677 6.072-16.677 14.909v30.946c0 8.837 7.642 15.889 16.677 14.909z" fill="#f9f7f8"/><g><path d="m455.436 103.499c7.672-.832 13.323-7.616 13.323-15.333v-30.066c0-8.095-6.22-15.075-14.306-15.44-8.6-.388-15.694 6.47-15.694 14.984v30.946c0 8.837 7.642 15.889 16.677 14.909z" fill="#f9f7f8"/></g><g fill="#fe9738"><path d="m95.49 233.95h-36.364c-3.5 0-6.338-2.837-6.338-6.338v-36.364c0-3.5 2.837-6.338 6.338-6.338h36.364c3.5 0 6.338 2.837 6.338 6.338v36.364c-.001 3.501-2.838 6.338-6.338 6.338z"/><path d="m214.11 233.95h-36.364c-3.5 0-6.338-2.837-6.338-6.338v-36.364c0-3.5 2.837-6.338 6.338-6.338h36.364c3.5 0 6.338 2.837 6.338 6.338v36.364c-.001 3.501-2.838 6.338-6.338 6.338z"/><path d="m332.73 233.95h-36.364c-3.5 0-6.338-2.837-6.338-6.338v-36.364c0-3.5 2.837-6.338 6.338-6.338h36.364c3.5 0 6.338 2.837 6.338 6.338v36.364c-.001 3.501-2.838 6.338-6.338 6.338z"/><path d="m451.349 233.95h-36.364c-3.5 0-6.338-2.837-6.338-6.338v-36.364c0-3.5 2.837-6.338 6.338-6.338h36.364c3.5 0 6.338 2.837 6.338 6.338v36.364c0 3.501-2.837 6.338-6.338 6.338z"/><path d="m95.49 327.133h-36.364c-3.5 0-6.338-2.837-6.338-6.338v-36.364c0-3.5 2.837-6.338 6.338-6.338h36.364c3.5 0 6.338 2.837 6.338 6.338v36.364c-.001 3.5-2.838 6.338-6.338 6.338z"/><path d="m214.11 327.133h-36.364c-3.5 0-6.338-2.837-6.338-6.338v-36.364c0-3.5 2.837-6.338 6.338-6.338h36.364c3.5 0 6.338 2.837 6.338 6.338v36.364c-.001 3.5-2.838 6.338-6.338 6.338z"/><path d="m451.349 327.133h-36.364c-3.5 0-6.338-2.837-6.338-6.338v-36.364c0-3.5 2.837-6.338 6.338-6.338h36.364c3.5 0 6.338 2.837 6.338 6.338v36.364c0 3.5-2.837 6.338-6.338 6.338z"/><path d="m95.49 420.315h-36.364c-3.5 0-6.338-2.837-6.338-6.338v-36.364c0-3.5 2.837-6.338 6.338-6.338h36.364c3.5 0 6.338 2.837 6.338 6.338v36.364c-.001 3.501-2.838 6.338-6.338 6.338z"/><path d="m214.11 420.315h-36.364c-3.5 0-6.338-2.837-6.338-6.338v-36.364c0-3.5 2.837-6.338 6.338-6.338h36.364c3.5 0 6.338 2.837 6.338 6.338v36.364c-.001 3.501-2.838 6.338-6.338 6.338z"/><path d="m332.73 420.315h-36.364c-3.5 0-6.338-2.837-6.338-6.338v-36.364c0-3.5 2.837-6.338 6.338-6.338h36.364c3.5 0 6.338 2.837 6.338 6.338v36.364c-.001 3.501-2.838 6.338-6.338 6.338z"/></g><path d="m318.708 276.151 3.831 11.792c.78 2.4 3.016 4.025 5.54 4.025h12.399c5.643 0 7.989 7.221 3.424 10.538l-10.031 7.288c-2.042 1.483-2.896 4.113-2.116 6.513l3.831 11.792c1.744 5.367-4.399 9.83-8.964 6.513l-10.031-7.288c-2.042-1.483-4.806-1.483-6.848 0l-10.031 7.288c-4.565 3.317-10.708-1.146-8.964-6.513l3.831-11.792c.78-2.4-.074-5.029-2.116-6.513l-10.031-7.288c-4.565-3.317-2.219-10.538 3.424-10.538h12.399c2.524 0 4.76-1.625 5.54-4.025l3.831-11.792c1.746-5.367 9.338-5.367 11.082 0z" fill="#fef056"/><path d="m397.558 467.03 105.214-105.214h-84.742c-11.306 0-20.472 9.165-20.472 20.472z" fill="#e5e1e5"/></g><g><path d="m502.772 312.419c-4.143 0-7.5 3.358-7.5 7.5v34.397h-77.243c-15.423 0-27.971 12.548-27.971 27.972v77.842h-351.87c-12.786 0-23.188-10.402-23.188-23.188v-226.246c0-4.142-3.357-7.5-7.5-7.5s-7.5 3.358-7.5 7.5v226.246c0 21.057 17.131 38.188 38.188 38.188h433.896c21.058 0 38.188-17.131 38.188-38.188v-117.023c0-4.142-3.357-7.5-7.5-7.5zm-97.713 69.868c0-7.153 5.818-12.972 12.971-12.972h66.637l-79.607 79.607v-66.635zm67.025 77.843h-57.019l80.207-80.207v57.019c0 12.786-10.402 23.188-23.188 23.188z"/><path d="m476.259 63.543v-5.443c0-12.316-9.43-22.389-21.468-22.932-6.213-.289-12.095 1.926-16.578 6.211-4.419 4.225-6.954 10.153-6.954 16.266v5.666h-21.207v-5.242c0-11.754-8.604-21.551-20.015-22.789-6.375-.693-12.761 1.354-17.51 5.616-4.751 4.264-7.476 10.368-7.476 16.749v5.666h-21.208v-5.242c0-11.754-8.604-21.551-20.015-22.789-6.376-.693-12.76 1.354-17.51 5.616-4.751 4.264-7.476 10.369-7.476 16.749v5.666h-21.208v-5.666c0-6.38-2.725-12.485-7.476-16.749-4.749-4.261-11.135-6.311-17.51-5.616-11.41 1.237-20.015 11.034-20.015 22.789v5.242h-21.208v-5.666c0-6.38-2.725-12.485-7.476-16.749-4.749-4.261-11.135-6.311-17.51-5.616-11.41 1.237-20.015 11.034-20.015 22.789v5.242h-21.204v-5.666c0-6.381-2.725-12.485-7.476-16.749-4.748-4.261-11.135-6.311-17.51-5.616-11.41 1.237-20.015 11.034-20.015 22.789v5.242h-21.206v-5.666c0-6.38-2.725-12.485-7.476-16.749-4.749-4.261-11.136-6.312-17.511-5.616-11.41 1.237-20.014 11.034-20.014 22.789v5.474c-19.098 2.086-34.012 18.309-34.012 37.955v77.236c0 4.142 3.357 7.5 7.5 7.5s7.5-3.358 7.5-7.5v-28.59h410.725c4.143 0 7.5-3.358 7.5-7.5s-3.357-7.5-7.5-7.5h-410.725v-33.646c0-11.36 8.214-20.831 19.013-22.804v9.473c0 11.754 8.604 21.551 20.014 22.789.816.089 1.632.132 2.444.132 5.541 0 10.926-2.032 15.066-5.749 4.751-4.264 7.476-10.368 7.476-16.749v-10.28h21.207v9.857c0 11.754 8.604 21.551 20.015 22.789.816.089 1.631.132 2.444.132 5.54 0 10.925-2.032 15.065-5.748 4.751-4.264 7.476-10.368 7.476-16.749v-10.281h21.208v9.857c0 11.754 8.604 21.551 20.015 22.789.816.089 1.631.132 2.444.132 5.54 0 10.924-2.032 15.065-5.748 4.751-4.264 7.476-10.369 7.476-16.749v-10.281h21.208v9.857c0 11.754 8.604 21.551 20.015 22.789.816.089 1.631.132 2.444.132 5.54 0 10.924-2.032 15.065-5.748 4.751-4.264 7.476-10.369 7.476-16.749v-10.281h21.208v10.281c0 6.38 2.725 12.485 7.476 16.749 4.142 3.716 9.524 5.748 15.065 5.748.813 0 1.629-.043 2.444-.132 11.41-1.237 20.015-11.034 20.015-22.789v-9.857h21.208v10.281c0 6.381 2.725 12.485 7.476 16.749 4.141 3.716 9.524 5.748 15.065 5.748.813 0 1.629-.043 2.444-.132 11.41-1.237 20.015-11.034 20.015-22.789v-9.857h21.207v10.281c0 6.38 2.725 12.485 7.476 16.749 4.142 3.716 9.525 5.749 15.066 5.749.813 0 1.629-.043 2.444-.132 11.41-1.237 20.014-11.034 20.014-22.789v-9.473c10.799 1.973 19.014 11.444 19.014 22.804v33.646h-37.586c-4.143 0-7.5 3.358-7.5 7.5s3.357 7.5 7.5 7.5h37.586v137.813c0 4.142 3.357 7.5 7.5 7.5s7.5-3.358 7.5-7.5v-186.46c-.001-19.646-14.914-35.869-34.014-37.955zm-412.246 25.048c0 2.158-.886 4.142-2.494 5.585-1.605 1.441-3.688 2.104-5.875 1.868-3.718-.403-6.631-3.863-6.631-7.876v-30.1c0-4.013 2.913-7.473 6.631-7.876 2.181-.234 4.269.426 5.875 1.868 1.608 1.443 2.494 3.427 2.494 5.585zm66.207 0c0 2.158-.886 4.142-2.494 5.585-1.606 1.44-3.69 2.102-5.874 1.867-3.719-.403-6.632-3.863-6.632-7.876v-30.099c0-4.013 2.913-7.473 6.632-7.876 2.18-.234 4.268.426 5.874 1.867 1.608 1.443 2.494 3.427 2.494 5.585zm66.208 0c0 2.158-.886 4.142-2.494 5.585-1.606 1.442-3.694 2.104-5.874 1.868-3.719-.403-6.632-3.863-6.632-7.876v-30.1c0-4.013 2.913-7.473 6.632-7.876.29-.031.577-.047.863-.047 1.864 0 3.618.665 5.011 1.915 1.608 1.443 2.494 3.427 2.494 5.585zm66.208 0c0 2.158-.886 4.142-2.494 5.585-1.606 1.442-3.691 2.104-5.874 1.868-3.719-.403-6.632-3.863-6.632-7.876v-30.1c0-4.013 2.913-7.473 6.632-7.876.29-.031.577-.047.863-.047 1.864 0 3.618.665 5.011 1.915 1.608 1.443 2.494 3.427 2.494 5.585zm66.208-.424c0 4.013-2.913 7.473-6.632 7.876-2.18.236-4.268-.427-5.874-1.868-1.608-1.443-2.494-3.427-2.494-5.585v-30.946c0-2.158.886-4.142 2.494-5.585 1.393-1.25 3.146-1.915 5.011-1.915.286 0 .573.016.863.047 3.719.403 6.632 3.863 6.632 7.876zm66.208 0c0 4.013-2.913 7.473-6.632 7.876-2.181.236-4.268-.426-5.874-1.867-1.608-1.443-2.494-3.427-2.494-5.585v-30.947c0-2.158.886-4.142 2.494-5.585 1.605-1.441 3.685-2.104 5.874-1.867 3.719.403 6.632 3.863 6.632 7.876zm66.207 0c0 4.013-2.913 7.473-6.631 7.876-2.182.236-4.269-.427-5.875-1.868-1.608-1.443-2.494-3.427-2.494-5.585v-30.946c0-2.067.823-3.993 2.319-5.423 1.409-1.347 3.238-2.077 5.185-2.077.117 0 .234.002.353.008 3.938.178 7.144 3.743 7.144 7.948v30.067z"/><path d="m59.126 241.451h36.364c7.63 0 13.837-6.208 13.837-13.838v-36.363c0-7.63-6.207-13.838-13.837-13.838h-36.364c-7.63 0-13.837 6.208-13.837 13.838v36.363c0 7.63 6.207 13.838 13.837 13.838zm1.163-49.04h34.038v34.039h-34.038z"/><path d="m177.746 241.451h36.363c7.63 0 13.838-6.208 13.838-13.838v-36.363c0-7.63-6.208-13.838-13.838-13.838h-36.363c-7.63 0-13.838 6.208-13.838 13.838v36.363c0 7.63 6.208 13.838 13.838 13.838zm1.162-49.04h34.039v34.039h-34.039z"/><path d="m296.366 241.451h36.363c7.63 0 13.838-6.208 13.838-13.838v-36.363c0-7.63-6.208-13.838-13.838-13.838h-36.363c-7.63 0-13.838 6.208-13.838 13.838v36.363c0 7.63 6.208 13.838 13.838 13.838zm1.162-49.04h34.039v34.039h-34.039z"/><path d="m414.986 241.451h36.363c7.63 0 13.838-6.208 13.838-13.838v-36.363c0-7.63-6.208-13.838-13.838-13.838h-36.363c-7.63 0-13.838 6.208-13.838 13.838v36.363c0 7.63 6.208 13.838 13.838 13.838zm1.162-49.04h34.039v34.039h-34.039z"/><path d="m45.289 320.795c0 7.63 6.207 13.837 13.837 13.837h36.364c7.63 0 13.837-6.208 13.837-13.837v-36.364c0-7.63-6.207-13.837-13.837-13.837h-36.364c-7.63 0-13.837 6.208-13.837 13.837zm15-35.201h34.038v34.039h-34.038z"/><path d="m163.908 320.795c0 7.63 6.208 13.837 13.838 13.837h36.363c7.63 0 13.838-6.208 13.838-13.837v-36.364c0-7.63-6.208-13.837-13.838-13.837h-36.363c-7.63 0-13.838 6.208-13.838 13.837zm15-35.201h34.039v34.039h-34.039z"/><path d="m401.148 320.795c0 7.63 6.208 13.837 13.838 13.837h36.363c7.63 0 13.838-6.208 13.838-13.837v-36.364c0-7.63-6.208-13.837-13.838-13.837h-36.363c-7.63 0-13.838 6.208-13.838 13.837zm15-35.201h34.039v34.039h-34.039z"/><path d="m45.289 413.978c0 7.63 6.207 13.837 13.837 13.837h36.364c7.63 0 13.837-6.208 13.837-13.837v-36.364c0-7.63-6.207-13.837-13.837-13.837h-36.364c-7.63 0-13.837 6.208-13.837 13.837zm15-35.201h34.038v34.039h-34.038z"/><path d="m163.908 413.978c0 7.63 6.208 13.837 13.838 13.837h36.363c7.63 0 13.838-6.208 13.838-13.837v-36.364c0-7.63-6.208-13.837-13.838-13.837h-36.363c-7.63 0-13.838 6.208-13.838 13.837zm15-35.201h34.039v34.039h-34.039z"/><path d="m332.729 363.777h-36.363c-7.63 0-13.838 6.208-13.838 13.837v36.364c0 7.63 6.208 13.837 13.838 13.837h36.363c7.63 0 13.838-6.208 13.838-13.837v-36.364c0-7.63-6.208-13.837-13.838-13.837zm-1.162 49.038h-34.039v-34.039h34.039z"/><path d="m273.186 293.676c-1.79 5.507.156 11.494 4.841 14.897l9.046 6.573-3.455 10.634c-1.79 5.507.155 11.494 4.84 14.898 2.343 1.702 5.087 2.553 7.833 2.553 2.744 0 5.49-.851 7.832-2.553l9.046-6.572 9.047 6.573c4.685 3.403 10.978 3.404 15.664 0 4.685-3.403 6.63-9.39 4.841-14.898l-3.456-10.634 9.047-6.573c4.685-3.403 6.63-9.39 4.841-14.897s-6.882-9.208-12.673-9.208h-11.182l-3.456-10.635c-1.789-5.507-6.881-9.207-12.671-9.207-.001 0-.001 0-.002 0-5.79 0-10.883 3.7-12.673 9.208l-3.455 10.634h-11.182c-5.792-.001-10.884 3.699-12.673 9.207zm25.071 5.792c5.79 0 10.882-3.7 12.673-9.208l2.238-6.89 2.238 6.889c1.789 5.508 6.882 9.208 12.674 9.208h7.243l-5.86 4.258c-4.684 3.403-6.629 9.389-4.841 14.898l2.238 6.889-5.859-4.257c-4.684-3.405-10.979-3.405-15.665 0l-5.86 4.257 2.238-6.888c1.79-5.508-.155-11.496-4.841-14.898l-5.86-4.258z"/></g></g></svg>